<svg xmlns="http://www.w3.org/2000/svg" viewBox="0 0 64 64" fill="none">
  <rect width="64" height="64" rx="14" fill="#0A0A0A" />
  <path d="M32 14C23 14 16 21.5 16 29c0 3.5 1.5 6.5 3 9l2.5 13c0.5 1.5 1.5 2.5 3 2.5s2.5-1 3-2.5l2-9c0.5-1.5 1.5-2 2.5-2s2 0.5 2.5 2l2 9c0.5 1.5 1.5 2.5 3 2.5s2.5-1 3-2.5l2.5-13c1.5-2.5 3-5.5 3-9 0-7.5-7-15-16-15z" fill="url(#goldGrad)"/>
  <path d="M32 16C24.5 16 18.5 22 18.5 29c0 3 1.2 5.5 2.5 8l2 11c0.2 1 1 1.5 2 1.5s1.8-0.5 2-1.5l2-8c0.8-2 2.2-2.5 3-2.5s2.2 0.5 3 2.5l2 8c0.2 1 1 1.5 2 1.5s1.8-0.5 2-1.5l2-11c1.3-2.5 2.5-5 2.5-8 0-7-6-13-13.5-13z" fill="url(#goldLight)"/>
  <defs>
    <linearGradient id="goldGrad" x1="16" y1="14" x2="48" y2="55" gradientUnits="userSpaceOnUse">
      <stop offset="0%" stop-color="#C9A84C"/>
      <stop offset="100%" stop-color="#A8863A"/>
    </linearGradient>
    <linearGradient id="goldLight" x1="18.5" y1="16" x2="45.5" y2="45" gradientUnits="userSpaceOnUse">
      <stop offset="0%" stop-color="#E0C06A"/>
      <stop offset="100%" stop-color="#C9A84C"/>
    </linearGradient>
  </defs>
</svg>
